<svg class="icon" width="56px" height="38px" viewBox="0 0 56 38" version="1.1" xmlns="http://www.w3.org/2000/svg" xmlns:xlink="http://www.w3.org/1999/xlink" xmlns:sketch="http://www.bohemiancoding.com/sketch/ns">
    <g stroke="none" stroke-width="1" fill="none" fill-rule="evenodd" sketch:type="MSPage">
        <g class="mail" sketch:type="MSLayerGroup">
            <path d="M54.8999,2.3662 L29.6289,22.7782 C29.4449,22.9262 29.2229,23.0002 28.9999,23.0002 C28.7949,23.0002 28.5889,22.9372 28.4139,22.8102 L0.8089,2.8212 C0.2919,3.7212 -0.0001,4.7962 -0.0001,6.0002 L-0.0001,32.0002 C-0.0001,35.4202 2.5049,38.0002 5.8259,38.0002 L49.9999,38.0002 C53.3089,38.0002 55.9999,35.3082 55.9999,32.0002 L55.9999,6.0002 C55.9999,4.5872 55.5999,3.3482 54.8999,2.3662" id="Fill-1062" sketch:type="MSShapeGroup"></path>
            <path d="M53.4502,0.9666 C52.4992,0.3466 51.3242,-0.000400000001 50.0002,-0.000400000001 L6.0002,-0.000400000001 C4.4602,-0.000400000001 3.1242,0.4686 2.1052,1.2896 L28.9672,20.7416 L53.4502,0.9666 Z" id="Fill-1063" sketch:type="MSShapeGroup"></path>
        </g>
    </g>
</svg>