<?xml version="1.0" encoding="UTF-8" standalone="no"?>
<svg width="60px" height="60px" viewBox="0 0 60 60" version="1.1" xmlns="http://www.w3.org/2000/svg" xmlns:xlink="http://www.w3.org/1999/xlink" xmlns:sketch="http://www.bohemiancoding.com/sketch/ns">
    <!-- Generator: Sketch 3.3.3 (12081) - http://www.bohemiancoding.com/sketch -->
    <title>Fill 255 + Fill 257</title>
    <desc>Created with Sketch.</desc>
    <defs></defs>
    <g id="Page-1" stroke="none" stroke-width="1" fill="none" fill-rule="evenodd" sketch:type="MSPage">
        <g id="Fill-255-+-Fill-257" sketch:type="MSLayerGroup" fill="#58595B">
            <path d="M22.9411765,0 L1.76470588,0 C0.790588235,0 0,0.447 0,1 L0,59 C0,59.553 0.790588235,60 1.76470588,60 L22.9411765,60 C23.9152941,60 24.7058824,59.553 24.7058824,59 L24.7058824,1 C24.7058824,0.447 23.9152941,0 22.9411765,0" id="Fill-255" sketch:type="MSShapeGroup"></path>
            <path d="M58.2352941,0 L37.0588235,0 C36.0847059,0 35.2941176,0.447 35.2941176,1 L35.2941176,59 C35.2941176,59.553 36.0847059,60 37.0588235,60 L58.2352941,60 C59.2094118,60 60,59.553 60,59 L60,1 C60,0.447 59.2094118,0 58.2352941,0" id="Fill-257" sketch:type="MSShapeGroup"></path>
        </g>
    </g>
</svg>